name ./resultDataOpenSim/trcMotMarkerGrf/sub06/grf-15-01.mot
datacolumns 19
datarows 27
range 1.02400000 1.12800000
endheader

                time	     ground_force_vx	     ground_force_vy	     ground_force_vz	     ground_force_px	     ground_force_py	     ground_force_pz	   l_ground_force_vx	   l_ground_force_vy	   l_ground_force_vz	   l_ground_force_px	   l_ground_force_py	   l_ground_force_pz	     ground_torque_x	     ground_torque_y	     ground_torque_z	   l_ground_torque_x	   l_ground_torque_y	   l_ground_torque_z	
          1.02400000	          0.00000000	          0.00000000	          0.00000000	          0.00000000	          0.00000000	          0.00000000	        116.43290718	        408.57981139	          2.82065972	          0.17856249	         -0.10000000	         -0.00912229	          0.00000000	          0.00000000	          0.00000000	          0.00000000	         -1.40074826	          0.00000000	
          1.02800000	          0.00000000	          0.00000000	          0.00000000	          0.00000000	          0.00000000	          0.00000000	        116.65807374	        393.37462906	          1.93877653	          0.17956748	         -0.10000000	         -0.00860765	          0.00000000	          0.00000000	          0.00000000	          0.00000000	         -1.44922014	          0.00000000	
          1.03200000	          0.00000000	          0.00000000	          0.00000000	          0.00000000	          0.00000000	          0.00000000	        115.93069363	        376.14099043	          0.95144122	          0.18069026	         -0.09999932	         -0.00802859	          0.00000000	          0.00000000	          0.00000000	          0.00000000	         -1.49079452	          0.00000000	
          1.03600000	         -2.81984329	         20.29902261	          0.56010030	          0.89015241	          0.00000000	          0.04188740	        114.10428095	        356.82639089	         -0.12423788	          0.18189256	         -0.09999900	         -0.00744504	          0.00000000	          1.41702194	          0.00000000	          0.00000000	         -1.51908316	          0.00000000	
          1.04000000	        -36.94188391	        279.01172073	          1.44407715	          0.89532492	          0.00000000	          0.04021513	        111.02056970	        335.43754371	         -1.27262545	          0.18320710	         -0.09999900	         -0.00685989	          0.00000000	          2.31416719	          0.00000000	          0.00000000	         -1.52920578	          0.00000000	
          1.04400000	        -71.85708902	        501.86780876	          3.76750149	          0.90043746	          0.00000000	          0.03865284	        106.53946083	        312.06335379	         -2.47773412	          0.18473152	         -0.09999900	         -0.00623023	          0.00000000	          3.14912994	          0.00000000	          0.00000000	         -1.51836168	          0.00000000	
          1.04800000	       -107.16994036	        662.07294487	          8.35839624	          0.90589955	          0.00000000	          0.03722977	        100.65521550	        286.94667177	         -3.69856702	          0.18659958	         -0.09999900	         -0.00551043	          0.00000000	          3.86363318	          0.00000000	          0.00000000	         -1.48574420	          0.00000000	
          1.05200000	       -141.12212745	        751.29576025	         14.66512051	          0.91152986	          0.00000000	          0.03617968	         93.61674818	        260.58647915	         -4.84338964	          0.18894713	         -0.09999900	         -0.00467740	          0.00000000	          4.40655559	          0.00000000	          0.00000000	         -1.43214385	          0.00000000	
          1.05600000	       -171.80633135	        781.49858164	         21.02643964	          0.91701499	          0.00000000	          0.03560556	         85.87719216	        233.77654003	         -5.79663552	          0.19183341	         -0.09999885	         -0.00374135	          0.00000000	          4.74587702	          0.00000000	          0.00000000	         -1.35962010	          0.00000000	
          1.06000000	       -198.83173933	        776.66363056	         25.94146511	          0.92242881	          0.00000000	          0.03533448	         77.86590394	        207.49509772	         -6.48098937	          0.19510166	         -0.09999800	         -0.00272713	          0.00000000	          4.87869309	          0.00000000	          0.00000000	         -1.27122141	          0.00000000	
          1.06400000	       -223.28342995	        759.94950881	         29.00013020	          0.92821533	          0.00000000	          0.03511275	         69.82847159	        182.63700603	         -6.86654875	          0.19831637	         -0.09999700	         -0.00166590	          0.00000000	          4.83346169	          0.00000000	          0.00000000	         -1.17040052	          0.00000000	
          1.06800000	       -245.81188270	        745.95596151	         30.66199669	          0.93448541	          0.00000000	          0.03488338	         61.89038685	        159.70987239	         -6.91518953	          0.20102798	         -0.09999759	         -0.00062464	          0.00000000	          4.66163475	          0.00000000	          0.00000000	         -1.06009391	          0.00000000	
          1.07200000	       -265.37167437	        741.62140117	         31.59338738	          0.94049919	          0.00000000	          0.03474208	         54.19665173	        138.74663482	         -6.54979136	          0.20320929	         -0.09999916	          0.00031816	          0.00000000	          4.42110542	          0.00000000	          0.00000000	         -0.94215170	          0.00000000	
          1.07600000	       -280.38723742	        750.54484627	         32.23519033	          0.94509218	          0.00000000	          0.03463764	         46.94881316	        119.53292738	         -5.69507461	          0.20525326	         -0.09999976	          0.00115406	          0.00000000	          4.15956801	          0.00000000	          0.00000000	         -0.81784048	          0.00000000	
          1.08000000	       -290.74203482	        774.65725934	         32.49329990	          0.94780197	          0.00000000	          0.03440702	         40.34019739	        101.89849918	         -4.34334097	          0.20747194	         -0.09999880	          0.00197530	          0.00000000	          3.90656932	          0.00000000	          0.00000000	         -0.68916714	          0.00000000	
          1.08400000	       -297.87408812	        813.06248789	         31.67966256	          0.94935272	          0.00000000	          0.03404953	         34.46041338	         85.78532949	         -2.59318006	          0.20955306	         -0.09999800	          0.00288880	          0.00000000	          3.67701519	          0.00000000	          0.00000000	         -0.55993656	          0.00000000	
          1.08800000	       -303.13925659	        861.56993423	         29.04517205	          0.95055868	          0.00000000	          0.03373898	         29.25249518	         71.11969568	         -0.64879006	          0.21074074	         -0.09999824	          0.00387517	          0.00000000	          3.48137348	          0.00000000	          0.00000000	         -0.43575568	          0.00000000	
          1.09200000	       -307.05831735	        914.50244887	         24.50537855	          0.95148064	          0.00000000	          0.03361300	         24.58666658	         57.75310696	          1.22272395	          0.21090012	         -0.10000000	          0.00491881	          0.00000000	          3.33477112	          0.00000000	          0.00000000	         -0.32301668	          0.00000000	
          1.09600000	       -310.32784676	        967.07194627	         18.86717371	          0.95202944	          0.00000000	          0.03364567	         20.38820347	         45.56294547	          2.77996392	          0.21023888	         -0.09999996	          0.00611673	          0.00000000	          3.25940448	          0.00000000	          0.00000000	         -0.22723193	          0.00000000	
          1.10000000	       -314.44919391	       1016.30960217	         13.43686152	          0.95259852	          0.00000000	          0.03371793	         16.67745294	         34.49972311	          3.90273735	          0.20824445	         -0.09999900	          0.00751135	          0.00000000	          3.27895121	          0.00000000	          0.00000000	         -0.15118545	          0.00000000	
          1.10400000	       -320.53700641	       1060.49585379	          9.32033069	          0.95380156	          0.00000000	          0.03375074	         13.47806594	         24.49412214	          4.61683318	          0.20380205	         -0.09999900	          0.00907898	          0.00000000	          3.40794154	          0.00000000	          0.00000000	         -0.09375544	          0.00000000	
          1.10800000	       -328.05325346	       1098.45295623	          6.93831937	          0.95557930	          0.00000000	          0.03379312	         10.70969618	         15.41068079	          5.03528216	          0.19591274	         -0.09999900	          0.01103228	          0.00000000	          3.64246737	          0.00000000	          0.00000000	         -0.05034697	          0.00000000	
          1.11200000	       -335.36588021	       1129.75315654	          6.13656885	          0.95752494	          0.00000000	          0.03392807	          0.00000000	          0.00000000	          0.00000000	          0.00000000	          0.00000000	          0.00000000	          0.00000000	          3.95844385	          0.00000000	          0.00000000	          0.00000000	          0.00000000	
          1.11600000	       -341.15697796	       1155.33836037	          6.57372487	          0.95943982	          0.00000000	          0.03415762	          0.00000000	          0.00000000	          0.00000000	          0.00000000	          0.00000000	          0.00000000	          0.00000000	          4.31864965	          0.00000000	          0.00000000	          0.00000000	          0.00000000	
          1.12000000	       -344.77833656	       1177.19284269	          7.85055993	          0.96133319	          0.00000000	          0.03442698	          0.00000000	          0.00000000	          0.00000000	          0.00000000	          0.00000000	          0.00000000	          0.00000000	          4.68385608	          0.00000000	          0.00000000	          0.00000000	          0.00000000	
          1.12400000	       -345.69138467	       1196.86993035	          9.44338642	          0.96315885	          0.00000000	          0.03469878	          0.00000000	          0.00000000	          0.00000000	          0.00000000	          0.00000000	          0.00000000	          0.00000000	          5.02155722	          0.00000000	          0.00000000	          0.00000000	          0.00000000	
          1.12800000	       -343.36306317	       1214.35923084	         10.74862266	          0.96480173	          0.00000000	          0.03497902	          0.00000000	          0.00000000	          0.00000000	          0.00000000	          0.00000000	          0.00000000	          0.00000000	          5.30895260	          0.00000000	          0.00000000	          0.00000000	          0.00000000	
